<?xml version="1.0" encoding="UTF-8" standalone="no"?>
<!DOCTYPE svg PUBLIC "-//W3C//DTD SVG 1.1//EN"
 "http://www.w3.org/Graphics/SVG/1.1/DTD/svg11.dtd">
<!-- Generated by graphviz version 4.0.0 (20220529.1859)
 -->
<!-- Title: snakemake_dag Pages: 1 -->
<svg width="137pt" height="188pt"
 viewBox="0.00 0.00 137.00 188.00" xmlns="http://www.w3.org/2000/svg" xmlns:xlink="http://www.w3.org/1999/xlink">
<g id="graph0" class="graph" transform="scale(1 1) rotate(0) translate(4 184)">
<title>snakemake_dag</title>
<polygon fill="white" stroke="transparent" points="-4,4 -4,-184 133,-184 133,4 -4,4"/>
<!-- 0 -->
<g id="node1" class="node">
<title>0</title>
<polygon fill="#fcf3cf" stroke="black" stroke-width="2" points="87,-36 31,-36 31,0 87,0 87,-36"/>
<text text-anchor="middle" x="59" y="-15.5" font-family="sans" font-size="10.00">pipeline</text>
</g>
<!-- 1 -->
<g id="node2" class="node">
<title>1</title>
<polygon fill="#fcf3cf" stroke="black" stroke-width="2" points="54,-180 0,-180 0,-144 54,-144 54,-180"/>
<text text-anchor="middle" x="27" y="-159.5" font-family="sans" font-size="10.00">merge</text>
</g>
<!-- 1&#45;&gt;0 -->
<g id="edge1" class="edge">
<title>1&#45;&gt;0</title>
<path fill="none" stroke="black" stroke-width="2" d="M30.49,-143.9C34.19,-125.96 40.28,-96.95 46,-72 47.94,-63.56 50.15,-54.39 52.19,-46.09"/>
<polygon fill="black" stroke="black" stroke-width="2" points="55.64,-46.7 54.65,-36.15 48.85,-45.02 55.64,-46.7"/>
</g>
<!-- 3 -->
<g id="node3" class="node">
<title>3</title>
<polygon fill="#fcf3cf" stroke="black" stroke-width="2" points="129,-108 55,-108 55,-72 129,-72 129,-108"/>
<text text-anchor="middle" x="92" y="-87.5" font-family="sans" font-size="10.00">html_report</text>
</g>
<!-- 1&#45;&gt;3 -->
<g id="edge3" class="edge">
<title>1&#45;&gt;3</title>
<path fill="none" stroke="black" stroke-width="2" d="M43.07,-143.7C50.94,-135.22 60.56,-124.86 69.17,-115.58"/>
<polygon fill="black" stroke="black" stroke-width="2" points="71.88,-117.81 76.12,-108.1 66.75,-113.05 71.88,-117.81"/>
</g>
<!-- 3&#45;&gt;0 -->
<g id="edge2" class="edge">
<title>3&#45;&gt;0</title>
<path fill="none" stroke="black" stroke-width="2" d="M83.84,-71.7C80.09,-63.73 75.55,-54.1 71.38,-45.26"/>
<polygon fill="black" stroke="black" stroke-width="2" points="74.49,-43.66 67.06,-36.1 68.16,-46.64 74.49,-43.66"/>
</g>
<!-- 4 -->
<g id="node4" class="node">
<title>4</title>
<polygon fill="#fcf3cf" stroke="black" stroke-width="2" points="126,-180 72,-180 72,-144 126,-144 126,-180"/>
<text text-anchor="middle" x="99" y="-159.5" font-family="sans" font-size="10.00">pyco</text>
</g>
<!-- 4&#45;&gt;3 -->
<g id="edge4" class="edge">
<title>4&#45;&gt;3</title>
<path fill="none" stroke="black" stroke-width="2" d="M97.27,-143.7C96.5,-135.98 95.57,-126.71 94.71,-118.11"/>
<polygon fill="black" stroke="black" stroke-width="2" points="98.19,-117.71 93.71,-108.1 91.22,-118.4 98.19,-117.71"/>
</g>
</g>
</svg>
