<?xml version="1.0" encoding="UTF-8" standalone="no"?>
<!DOCTYPE svg PUBLIC "-//W3C//DTD SVG 1.1//EN"
 "http://www.w3.org/Graphics/SVG/1.1/DTD/svg11.dtd">
<!-- Generated by graphviz version 7.0.5 (20221223.1930)
 -->
<!-- Title: snakemake_dag Pages: 1 -->
<svg width="247pt" height="260pt"
 viewBox="0.00 0.00 246.50 260.00" xmlns="http://www.w3.org/2000/svg" xmlns:xlink="http://www.w3.org/1999/xlink">
<g id="graph0" class="graph" transform="scale(1 1) rotate(0) translate(4 256)">
<title>snakemake_dag</title>
<polygon fill="white" stroke="none" points="-4,4 -4,-256 242.5,-256 242.5,4 -4,4"/>
<!-- 0 -->
<g id="node1" class="node">
<title>0</title>
<polygon fill="#fcf3cf" stroke="black" stroke-width="2" points="140.5,-36 63.5,-36 63.5,0 140.5,0 140.5,-36"/>
<text text-anchor="middle" x="102" y="-15.5" font-family="sans" font-size="10.00">pipeline</text>
</g>
<!-- 1 -->
<g id="node2" class="node">
<title>1</title>
<polygon fill="#fcf3cf" stroke="black" stroke-width="2" points="54,-180 0,-180 0,-144 54,-144 54,-180"/>
<text text-anchor="middle" x="27" y="-159.5" font-family="sans" font-size="10.00">merge</text>
</g>
<!-- 1&#45;&gt;0 -->
<g id="edge2" class="edge">
<title>1&#45;&gt;0</title>
<path fill="none" stroke="black" stroke-width="2" d="M26.87,-143.15C27.46,-124.32 30.54,-94.35 43,-72 48.54,-62.06 56.65,-53.01 65.1,-45.32"/>
<polygon fill="black" stroke="black" stroke-width="2" points="67.34,-48.01 72.72,-38.89 62.82,-42.66 67.34,-48.01"/>
</g>
<!-- 4 -->
<g id="node4" class="node">
<title>4</title>
<polygon fill="#fcf3cf" stroke="black" stroke-width="2" points="151.5,-108 52.5,-108 52.5,-72 151.5,-72 151.5,-108"/>
<text text-anchor="middle" x="102" y="-87.5" font-family="sans" font-size="10.00">html_report</text>
</g>
<!-- 1&#45;&gt;4 -->
<g id="edge4" class="edge">
<title>1&#45;&gt;4</title>
<path fill="none" stroke="black" stroke-width="2" d="M45.93,-143.34C54.3,-135.52 64.33,-126.16 73.57,-117.53"/>
<polygon fill="black" stroke="black" stroke-width="2" points="75.68,-120.35 80.61,-110.97 70.91,-115.23 75.68,-120.35"/>
</g>
<!-- 2 -->
<g id="node3" class="node">
<title>2</title>
<polygon fill="#fcf3cf" stroke="black" stroke-width="2" points="238.5,-108 169.5,-108 169.5,-72 238.5,-72 238.5,-108"/>
<text text-anchor="middle" x="204" y="-87.5" font-family="sans" font-size="10.00">dot2svg</text>
</g>
<!-- 2&#45;&gt;0 -->
<g id="edge1" class="edge">
<title>2&#45;&gt;0</title>
<path fill="none" stroke="black" stroke-width="2" d="M178,-71.15C166.01,-62.93 151.57,-53.02 138.51,-44.06"/>
<polygon fill="black" stroke="black" stroke-width="2" points="140.68,-41.3 130.45,-38.53 136.72,-47.07 140.68,-41.3"/>
</g>
<!-- 4&#45;&gt;0 -->
<g id="edge3" class="edge">
<title>4&#45;&gt;0</title>
<path fill="none" stroke="black" stroke-width="2" d="M102,-71.34C102,-64.75 102,-57.08 102,-49.67"/>
<polygon fill="black" stroke="black" stroke-width="2" points="105.5,-49.93 102,-39.93 98.5,-49.93 105.5,-49.93"/>
</g>
<!-- 5 -->
<g id="node5" class="node">
<title>5</title>
<polygon fill="#fcf3cf" stroke="black" stroke-width="2" points="129,-180 75,-180 75,-144 129,-144 129,-180"/>
<text text-anchor="middle" x="102" y="-159.5" font-family="sans" font-size="10.00">pyco</text>
</g>
<!-- 5&#45;&gt;4 -->
<g id="edge5" class="edge">
<title>5&#45;&gt;4</title>
<path fill="none" stroke="black" stroke-width="2" d="M102,-143.34C102,-136.75 102,-129.08 102,-121.67"/>
<polygon fill="black" stroke="black" stroke-width="2" points="105.5,-121.93 102,-111.93 98.5,-121.93 105.5,-121.93"/>
</g>
<!-- 6 -->
<g id="node6" class="node">
<title>6</title>
<polygon fill="#fcf3cf" stroke="black" stroke-width="2" points="178,-252 26,-252 26,-216 178,-216 178,-252"/>
<text text-anchor="middle" x="102" y="-231.5" font-family="sans" font-size="10.00">sub_sample_summary</text>
</g>
<!-- 6&#45;&gt;5 -->
<g id="edge6" class="edge">
<title>6&#45;&gt;5</title>
<path fill="none" stroke="black" stroke-width="2" d="M102,-215.34C102,-208.75 102,-201.08 102,-193.67"/>
<polygon fill="black" stroke="black" stroke-width="2" points="105.5,-193.93 102,-183.93 98.5,-193.93 105.5,-193.93"/>
</g>
</g>
</svg>
